<?xml version="1.0" encoding="UTF-8"?>
<svg xmlns="http://www.w3.org/2000/svg" xmlns:xlink="http://www.w3.org/1999/xlink" width="32px" height="20px" viewBox="0 0 31 20" version="1.1">
<g id="surface1">
<path style=" stroke:none;fill-rule:nonzero;fill:rgb(85.098039%,13.333333%,16.470588%);fill-opacity:1;" d="M 17.9375 10 C 17.9375 14.210938 14.617188 17.621094 10.519531 17.621094 C 6.421875 17.621094 3.101562 14.210938 3.101562 10 C 3.101562 5.789062 6.421875 2.378906 10.519531 2.378906 C 14.617188 2.378906 17.9375 5.789062 17.9375 10 "/>
<path style=" stroke:none;fill-rule:nonzero;fill:rgb(93.333333%,62.352941%,17.647059%);fill-opacity:1;" d="M 20.480469 2.378906 C 18.5625 2.378906 16.816406 3.125 15.5 4.351562 C 15.230469 4.601562 14.980469 4.871094 14.75 5.15625 L 16.25 5.15625 C 16.453125 5.414062 16.644531 5.683594 16.816406 5.964844 L 14.183594 5.964844 C 14.027344 6.222656 13.882812 6.492188 13.757812 6.773438 L 17.242188 6.773438 C 17.363281 7.035156 17.464844 7.300781 17.554688 7.578125 L 13.441406 7.578125 C 13.359375 7.839844 13.285156 8.109375 13.226562 8.386719 L 17.773438 8.386719 C 17.882812 8.90625 17.9375 9.445312 17.9375 10 C 17.9375 10.847656 17.804688 11.660156 17.554688 12.421875 L 13.441406 12.421875 C 13.53125 12.699219 13.636719 12.96875 13.757812 13.226562 L 17.242188 13.226562 C 17.117188 13.507812 16.972656 13.777344 16.816406 14.035156 L 14.183594 14.035156 C 14.355469 14.316406 14.546875 14.585938 14.75 14.84375 L 16.25 14.84375 C 16.019531 15.128906 15.769531 15.398438 15.5 15.648438 C 16.816406 16.875 18.5625 17.621094 20.480469 17.621094 C 24.578125 17.621094 27.898438 14.210938 27.898438 10 C 27.898438 5.789062 24.578125 2.378906 20.480469 2.378906 "/>
<path style=" stroke:none;fill-rule:nonzero;fill:rgb(0%,0%,0%);fill-opacity:1;" d="M 26.910156 14.25 C 26.910156 14.113281 27.019531 14.003906 27.152344 14.003906 C 27.28125 14.003906 27.390625 14.113281 27.390625 14.25 C 27.390625 14.382812 27.28125 14.496094 27.152344 14.496094 C 27.019531 14.496094 26.910156 14.382812 26.910156 14.25 Z M 27.152344 14.4375 C 27.25 14.4375 27.332031 14.351562 27.332031 14.25 C 27.332031 14.144531 27.25 14.0625 27.152344 14.0625 C 27.050781 14.0625 26.96875 14.144531 26.96875 14.25 C 26.96875 14.351562 27.050781 14.4375 27.152344 14.4375 Z M 27.117188 14.355469 L 27.070312 14.355469 L 27.070312 14.140625 L 27.15625 14.140625 C 27.175781 14.140625 27.195312 14.140625 27.210938 14.152344 C 27.230469 14.164062 27.238281 14.183594 27.238281 14.207031 C 27.238281 14.230469 27.226562 14.253906 27.203125 14.261719 L 27.242188 14.355469 L 27.1875 14.355469 L 27.15625 14.269531 L 27.117188 14.269531 Z M 27.117188 14.234375 L 27.144531 14.234375 C 27.15625 14.234375 27.167969 14.234375 27.175781 14.230469 C 27.183594 14.226562 27.1875 14.214844 27.1875 14.207031 C 27.1875 14.195312 27.183594 14.1875 27.175781 14.183594 C 27.167969 14.179688 27.152344 14.179688 27.144531 14.179688 L 27.117188 14.179688 Z M 27.117188 14.234375 "/>
<path style=" stroke:none;fill-rule:nonzero;fill:rgb(0%,0%,0%);fill-opacity:1;" d="M 8.785156 10.835938 C 8.703125 10.824219 8.664062 10.820312 8.605469 10.820312 C 8.152344 10.820312 7.917969 10.984375 7.917969 11.300781 C 7.917969 11.496094 8.03125 11.621094 8.207031 11.621094 C 8.535156 11.621094 8.773438 11.300781 8.785156 10.835938 Z M 9.371094 12.234375 L 8.707031 12.234375 L 8.71875 11.910156 C 8.515625 12.167969 8.246094 12.289062 7.875 12.289062 C 7.441406 12.289062 7.140625 11.9375 7.140625 11.429688 C 7.140625 10.664062 7.660156 10.21875 8.554688 10.21875 C 8.644531 10.21875 8.761719 10.226562 8.882812 10.242188 C 8.90625 10.140625 8.914062 10.09375 8.914062 10.039062 C 8.914062 9.832031 8.773438 9.753906 8.398438 9.753906 C 8.003906 9.75 7.679688 9.847656 7.546875 9.894531 C 7.554688 9.84375 7.65625 9.1875 7.65625 9.1875 C 8.058594 9.066406 8.324219 9.019531 8.621094 9.019531 C 9.3125 9.019531 9.679688 9.339844 9.679688 9.941406 C 9.679688 10.105469 9.652344 10.304688 9.613281 10.566406 C 9.542969 11.023438 9.394531 11.996094 9.371094 12.234375 Z M 9.371094 12.234375 "/>
<path style=" stroke:none;fill-rule:nonzero;fill:rgb(0%,0%,0%);fill-opacity:1;" d="M 6.804688 12.234375 L 5.996094 12.234375 L 6.460938 9.261719 L 5.429688 12.234375 L 4.878906 12.234375 L 4.8125 9.28125 L 4.328125 12.234375 L 3.574219 12.234375 L 4.203125 8.371094 L 5.363281 8.371094 L 5.433594 10.535156 L 6.136719 8.371094 L 7.425781 8.371094 L 6.804688 12.234375 "/>
<path style=" stroke:none;fill-rule:nonzero;fill:rgb(0%,0%,0%);fill-opacity:1;" d="M 21.476562 10.835938 C 21.390625 10.824219 21.355469 10.820312 21.296875 10.820312 C 20.839844 10.820312 20.609375 10.984375 20.609375 11.300781 C 20.609375 11.496094 20.722656 11.621094 20.898438 11.621094 C 21.226562 11.621094 21.460938 11.300781 21.476562 10.835938 Z M 22.0625 12.234375 L 21.394531 12.234375 L 21.410156 11.910156 C 21.207031 12.167969 20.933594 12.289062 20.566406 12.289062 C 20.128906 12.289062 19.828125 11.9375 19.828125 11.429688 C 19.828125 10.664062 20.351562 10.21875 21.242188 10.21875 C 21.335938 10.21875 21.453125 10.226562 21.570312 10.242188 C 21.597656 10.140625 21.605469 10.09375 21.605469 10.039062 C 21.605469 9.832031 21.464844 9.753906 21.085938 9.753906 C 20.691406 9.75 20.367188 9.847656 20.234375 9.894531 C 20.242188 9.84375 20.347656 9.1875 20.347656 9.1875 C 20.746094 9.066406 21.011719 9.019531 21.308594 9.019531 C 22 9.019531 22.367188 9.339844 22.367188 9.941406 C 22.367188 10.105469 22.34375 10.304688 22.300781 10.566406 C 22.234375 11.023438 22.082031 11.996094 22.0625 12.234375 Z M 22.0625 12.234375 "/>
<path style=" stroke:none;fill-rule:nonzero;fill:rgb(0%,0%,0%);fill-opacity:1;" d="M 12.953125 12.1875 C 12.730469 12.257812 12.558594 12.289062 12.375 12.289062 C 11.960938 12.289062 11.738281 12.046875 11.738281 11.597656 C 11.730469 11.460938 11.796875 11.09375 11.847656 10.761719 C 11.894531 10.46875 12.195312 8.617188 12.195312 8.617188 L 12.996094 8.617188 L 12.902344 9.089844 L 13.386719 9.089844 L 13.277344 9.847656 L 12.792969 9.847656 C 12.699219 10.445312 12.566406 11.191406 12.566406 11.289062 C 12.566406 11.449219 12.648438 11.519531 12.84375 11.519531 C 12.933594 11.519531 13.003906 11.511719 13.058594 11.492188 L 12.953125 12.1875 "/>
<path style=" stroke:none;fill-rule:nonzero;fill:rgb(0%,0%,0%);fill-opacity:1;" d="M 15.40625 12.164062 C 15.132812 12.25 14.867188 12.289062 14.585938 12.289062 C 13.6875 12.289062 13.222656 11.808594 13.222656 10.886719 C 13.222656 9.8125 13.816406 9.019531 14.625 9.019531 C 15.285156 9.019531 15.707031 9.464844 15.707031 10.160156 C 15.707031 10.390625 15.675781 10.613281 15.605469 10.933594 L 14.011719 10.933594 C 13.957031 11.386719 14.242188 11.578125 14.707031 11.578125 C 14.996094 11.578125 15.253906 11.519531 15.539062 11.378906 Z M 14.957031 10.296875 C 14.960938 10.234375 15.042969 9.738281 14.585938 9.738281 C 14.328125 9.738281 14.148438 9.9375 14.074219 10.296875 Z M 14.957031 10.296875 "/>
<path style=" stroke:none;fill-rule:nonzero;fill:rgb(0%,0%,0%);fill-opacity:1;" d="M 9.855469 10.085938 C 9.855469 10.484375 10.042969 10.757812 10.46875 10.964844 C 10.796875 11.121094 10.847656 11.167969 10.847656 11.308594 C 10.847656 11.507812 10.703125 11.59375 10.382812 11.59375 C 10.144531 11.59375 9.917969 11.554688 9.660156 11.46875 C 9.660156 11.46875 9.554688 12.164062 9.550781 12.195312 C 9.734375 12.238281 9.898438 12.277344 10.390625 12.289062 C 11.238281 12.289062 11.632812 11.957031 11.632812 11.238281 C 11.632812 10.808594 11.46875 10.554688 11.0625 10.363281 C 10.726562 10.203125 10.6875 10.167969 10.6875 10.019531 C 10.6875 9.851562 10.820312 9.765625 11.082031 9.765625 C 11.238281 9.765625 11.457031 9.78125 11.660156 9.8125 L 11.773438 9.082031 C 11.566406 9.046875 11.25 9.019531 11.066406 9.019531 C 10.164062 9.019531 9.851562 9.503906 9.855469 10.085938 "/>
<path style=" stroke:none;fill-rule:nonzero;fill:rgb(0%,0%,0%);fill-opacity:1;" d="M 19.324219 9.105469 C 19.546875 9.105469 19.757812 9.164062 20.042969 9.3125 L 20.175781 8.472656 C 20.058594 8.425781 19.644531 8.148438 19.289062 8.148438 C 18.75 8.148438 18.296875 8.421875 17.976562 8.875 C 17.507812 8.714844 17.316406 9.039062 17.082031 9.355469 L 16.871094 9.40625 C 16.886719 9.300781 16.902344 9.199219 16.898438 9.089844 L 16.15625 9.089844 C 16.054688 10.0625 15.875 11.050781 15.738281 12.023438 L 15.699219 12.234375 L 16.503906 12.234375 C 16.640625 11.339844 16.714844 10.761719 16.757812 10.375 L 17.0625 10.199219 C 17.109375 10.027344 17.25 9.96875 17.535156 9.976562 C 17.496094 10.179688 17.476562 10.398438 17.476562 10.621094 C 17.476562 11.648438 18.015625 12.289062 18.882812 12.289062 C 19.109375 12.289062 19.300781 12.257812 19.597656 12.175781 L 19.738281 11.296875 C 19.472656 11.429688 19.25 11.492188 19.054688 11.492188 C 18.585938 11.492188 18.300781 11.140625 18.300781 10.550781 C 18.300781 9.699219 18.722656 9.105469 19.324219 9.105469 "/>
<path style=" stroke:none;fill-rule:nonzero;fill:rgb(100%,100%,100%);fill-opacity:1;" d="M 7.035156 12.007812 L 6.230469 12.007812 L 6.691406 9.035156 L 5.660156 12.007812 L 5.113281 12.007812 L 5.042969 9.050781 L 4.558594 12.007812 L 3.804688 12.007812 L 4.433594 8.140625 L 5.59375 8.140625 L 5.625 10.535156 L 6.40625 8.140625 L 7.660156 8.140625 L 7.035156 12.007812 "/>
<path style=" stroke:none;fill-rule:nonzero;fill:rgb(0%,0%,0%);fill-opacity:1;" d="M 26.144531 8.371094 L 25.964844 9.488281 C 25.746094 9.1875 25.507812 8.972656 25.195312 8.972656 C 24.789062 8.972656 24.421875 9.289062 24.179688 9.753906 C 23.839844 9.683594 23.492188 9.5625 23.492188 9.5625 L 23.492188 9.566406 C 23.519531 9.304688 23.53125 9.144531 23.527344 9.089844 L 22.789062 9.089844 C 22.6875 10.0625 22.507812 11.050781 22.367188 12.023438 L 22.332031 12.234375 L 23.136719 12.234375 C 23.246094 11.511719 23.328125 10.90625 23.390625 10.429688 C 23.664062 10.171875 23.804688 9.949219 24.082031 9.964844 C 23.957031 10.269531 23.886719 10.625 23.886719 10.984375 C 23.886719 11.769531 24.273438 12.289062 24.859375 12.289062 C 25.152344 12.289062 25.378906 12.183594 25.601562 11.941406 L 25.5625 12.234375 L 26.324219 12.234375 L 26.9375 8.371094 Z M 25.136719 11.507812 C 24.863281 11.507812 24.722656 11.300781 24.722656 10.890625 C 24.722656 10.269531 24.984375 9.832031 25.347656 9.832031 C 25.625 9.832031 25.777344 10.050781 25.777344 10.449219 C 25.777344 11.074219 25.511719 11.507812 25.136719 11.507812 Z M 25.136719 11.507812 "/>
<path style=" stroke:none;fill-rule:nonzero;fill:rgb(100%,100%,100%);fill-opacity:1;" d="M 9.019531 10.605469 C 8.933594 10.59375 8.898438 10.59375 8.839844 10.59375 C 8.382812 10.59375 8.152344 10.753906 8.152344 11.070312 C 8.152344 11.265625 8.265625 11.390625 8.441406 11.390625 C 8.769531 11.390625 9.003906 11.070312 9.019531 10.605469 Z M 9.605469 12.007812 L 8.9375 12.007812 L 8.953125 11.679688 C 8.75 11.9375 8.476562 12.0625 8.109375 12.0625 C 7.671875 12.0625 7.371094 11.710938 7.371094 11.203125 C 7.371094 10.4375 7.894531 9.988281 8.785156 9.988281 C 8.878906 9.988281 8.996094 10 9.113281 10.015625 C 9.140625 9.910156 9.144531 9.867188 9.144531 9.808594 C 9.144531 9.601562 9.007812 9.523438 8.628906 9.523438 C 8.234375 9.519531 7.910156 9.621094 7.777344 9.664062 C 7.785156 9.613281 7.890625 8.957031 7.890625 8.957031 C 8.289062 8.835938 8.554688 8.792969 8.851562 8.792969 C 9.542969 8.792969 9.910156 9.109375 9.910156 9.714844 C 9.910156 9.875 9.886719 10.074219 9.84375 10.335938 C 9.773438 10.792969 9.625 11.769531 9.605469 12.007812 Z M 9.605469 12.007812 "/>
<path style=" stroke:none;fill-rule:nonzero;fill:rgb(100%,100%,100%);fill-opacity:1;" d="M 20.40625 8.246094 L 20.277344 9.082031 C 19.988281 8.933594 19.78125 8.875 19.558594 8.875 C 18.957031 8.875 18.535156 9.472656 18.535156 10.324219 C 18.535156 10.910156 18.816406 11.265625 19.285156 11.265625 C 19.484375 11.265625 19.703125 11.203125 19.96875 11.066406 L 19.828125 11.949219 C 19.53125 12.03125 19.339844 12.0625 19.117188 12.0625 C 18.25 12.0625 17.707031 11.421875 17.707031 10.390625 C 17.707031 9.007812 18.457031 8.042969 19.523438 8.042969 C 19.875 8.042969 20.289062 8.195312 20.40625 8.246094 "/>
<path style=" stroke:none;fill-rule:nonzero;fill:rgb(100%,100%,100%);fill-opacity:1;" d="M 21.707031 10.605469 C 21.625 10.59375 21.585938 10.59375 21.527344 10.59375 C 21.070312 10.59375 20.839844 10.753906 20.839844 11.070312 C 20.839844 11.265625 20.953125 11.390625 21.128906 11.390625 C 21.457031 11.390625 21.695312 11.070312 21.707031 10.605469 Z M 22.292969 12.007812 L 21.625 12.007812 L 21.640625 11.679688 C 21.4375 11.9375 21.167969 12.0625 20.796875 12.0625 C 20.359375 12.0625 20.0625 11.710938 20.0625 11.203125 C 20.0625 10.4375 20.582031 9.988281 21.476562 9.988281 C 21.566406 9.988281 21.683594 10 21.804688 10.015625 C 21.828125 9.910156 21.835938 9.867188 21.835938 9.808594 C 21.835938 9.601562 21.695312 9.523438 21.320312 9.523438 C 20.925781 9.519531 20.601562 9.621094 20.464844 9.664062 C 20.476562 9.613281 20.578125 8.957031 20.578125 8.957031 C 20.980469 8.835938 21.246094 8.792969 21.542969 8.792969 C 22.234375 8.792969 22.601562 9.109375 22.597656 9.714844 C 22.601562 9.875 22.574219 10.074219 22.535156 10.335938 C 22.464844 10.792969 22.3125 11.769531 22.292969 12.007812 Z M 22.292969 12.007812 "/>
<path style=" stroke:none;fill-rule:nonzero;fill:rgb(100%,100%,100%);fill-opacity:1;" d="M 13.183594 11.957031 C 12.964844 12.03125 12.792969 12.0625 12.605469 12.0625 C 12.195312 12.0625 11.96875 11.816406 11.96875 11.371094 C 11.964844 11.230469 12.027344 10.867188 12.078125 10.53125 C 12.125 10.238281 12.429688 8.386719 12.429688 8.386719 L 13.230469 8.386719 L 13.136719 8.863281 L 13.546875 8.863281 L 13.4375 9.617188 L 13.023438 9.617188 C 12.933594 10.214844 12.800781 10.960938 12.796875 11.058594 C 12.796875 11.222656 12.882812 11.292969 13.074219 11.292969 C 13.164062 11.292969 13.238281 11.28125 13.289062 11.261719 L 13.183594 11.957031 "/>
<path style=" stroke:none;fill-rule:nonzero;fill:rgb(100%,100%,100%);fill-opacity:1;" d="M 15.640625 11.933594 C 15.363281 12.019531 15.097656 12.0625 14.816406 12.0625 C 13.921875 12.058594 13.453125 11.578125 13.453125 10.65625 C 13.453125 9.582031 14.046875 8.792969 14.855469 8.792969 C 15.515625 8.792969 15.9375 9.234375 15.9375 9.929688 C 15.9375 10.160156 15.90625 10.386719 15.839844 10.703125 L 14.242188 10.703125 C 14.191406 11.160156 14.472656 11.347656 14.941406 11.347656 C 15.226562 11.347656 15.484375 11.289062 15.773438 11.152344 Z M 15.1875 10.070312 C 15.195312 10.003906 15.273438 9.507812 14.816406 9.507812 C 14.5625 9.507812 14.378906 9.707031 14.304688 10.070312 Z M 15.1875 10.070312 "/>
<path style=" stroke:none;fill-rule:nonzero;fill:rgb(100%,100%,100%);fill-opacity:1;" d="M 10.085938 9.855469 C 10.085938 10.253906 10.273438 10.527344 10.699219 10.734375 C 11.027344 10.890625 11.078125 10.9375 11.078125 11.082031 C 11.078125 11.277344 10.933594 11.367188 10.613281 11.367188 C 10.375 11.367188 10.152344 11.328125 9.894531 11.242188 C 9.894531 11.242188 9.789062 11.933594 9.78125 11.96875 C 9.964844 12.007812 10.128906 12.046875 10.621094 12.0625 C 11.472656 12.0625 11.863281 11.726562 11.863281 11.011719 C 11.863281 10.578125 11.699219 10.324219 11.296875 10.132812 C 10.957031 9.972656 10.917969 9.9375 10.917969 9.792969 C 10.917969 9.621094 11.054688 9.535156 11.3125 9.535156 C 11.472656 9.535156 11.6875 9.550781 11.890625 9.582031 L 12.007812 8.851562 C 11.796875 8.820312 11.480469 8.792969 11.296875 8.792969 C 10.398438 8.792969 10.085938 9.273438 10.085938 9.855469 "/>
<path style=" stroke:none;fill-rule:nonzero;fill:rgb(100%,100%,100%);fill-opacity:1;" d="M 26.558594 12.007812 L 25.792969 12.007812 L 25.832031 11.714844 C 25.613281 11.957031 25.386719 12.0625 25.089844 12.0625 C 24.503906 12.0625 24.117188 11.542969 24.117188 10.757812 C 24.117188 9.710938 24.71875 8.828125 25.429688 8.828125 C 25.742188 8.828125 25.976562 8.960938 26.195312 9.257812 L 26.375 8.140625 L 27.171875 8.140625 Z M 25.367188 11.28125 C 25.742188 11.28125 26.007812 10.84375 26.007812 10.21875 C 26.007812 9.820312 25.859375 9.605469 25.582031 9.605469 C 25.214844 9.605469 24.957031 10.042969 24.957031 10.660156 C 24.957031 11.070312 25.09375 11.28125 25.367188 11.28125 Z M 25.367188 11.28125 "/>
<path style=" stroke:none;fill-rule:nonzero;fill:rgb(100%,100%,100%);fill-opacity:1;" d="M 23.019531 8.863281 C 22.917969 9.835938 22.738281 10.820312 22.597656 11.792969 L 22.5625 12.007812 L 23.367188 12.007812 C 23.65625 10.082031 23.726562 9.707031 24.175781 9.753906 C 24.25 9.363281 24.382812 9.015625 24.484375 8.84375 C 24.144531 8.769531 23.957031 8.964844 23.710938 9.339844 C 23.730469 9.179688 23.765625 9.023438 23.757812 8.863281 L 23.019531 8.863281 "/>
<path style=" stroke:none;fill-rule:nonzero;fill:rgb(100%,100%,100%);fill-opacity:1;" d="M 16.386719 8.863281 C 16.289062 9.835938 16.109375 10.820312 15.96875 11.792969 L 15.933594 12.007812 L 16.738281 12.007812 C 17.027344 10.082031 17.09375 9.707031 17.546875 9.753906 C 17.617188 9.363281 17.753906 9.015625 17.851562 8.84375 C 17.515625 8.769531 17.328125 8.964844 17.082031 9.339844 C 17.101562 9.179688 17.136719 9.023438 17.128906 8.863281 L 16.386719 8.863281 "/>
<path style=" stroke:none;fill-rule:nonzero;fill:rgb(100%,100%,100%);fill-opacity:1;" d="M 26.910156 11.761719 C 26.910156 11.625 27.019531 11.511719 27.148438 11.511719 C 27.28125 11.511719 27.390625 11.625 27.390625 11.761719 C 27.390625 11.894531 27.28125 12.007812 27.148438 12.007812 C 27.019531 12.007812 26.910156 11.894531 26.910156 11.761719 Z M 27.148438 11.945312 C 27.25 11.945312 27.332031 11.863281 27.332031 11.761719 C 27.332031 11.65625 27.25 11.574219 27.148438 11.574219 C 27.050781 11.574219 26.96875 11.65625 26.96875 11.761719 C 26.96875 11.863281 27.050781 11.945312 27.148438 11.945312 Z M 27.117188 11.867188 L 27.070312 11.867188 L 27.070312 11.652344 L 27.15625 11.652344 C 27.175781 11.652344 27.195312 11.652344 27.210938 11.664062 C 27.230469 11.675781 27.238281 11.695312 27.238281 11.714844 C 27.238281 11.742188 27.222656 11.765625 27.203125 11.773438 L 27.242188 11.867188 L 27.1875 11.867188 L 27.152344 11.78125 L 27.117188 11.78125 Z M 27.117188 11.746094 L 27.144531 11.746094 C 27.15625 11.746094 27.167969 11.746094 27.175781 11.742188 C 27.183594 11.734375 27.1875 11.726562 27.1875 11.714844 C 27.1875 11.707031 27.183594 11.699219 27.175781 11.695312 C 27.167969 11.6875 27.152344 11.691406 27.144531 11.691406 L 27.117188 11.691406 Z M 27.117188 11.746094 "/>
</g>
</svg>
