<?xml version="1.0" encoding="UTF-8"?>
<svg xmlns="http://www.w3.org/2000/svg" xmlns:xlink="http://www.w3.org/1999/xlink" width="px" height="20px" viewBox="0 0 66 20" version="1.1">
<defs>
<linearGradient id="linear0" gradientUnits="userSpaceOnUse" x1="1" y1="0.629043" x2="0" y2="0.629043" gradientTransform="matrix(16.839844,0,0,6.613281,46.253906,2.167969)">
<stop offset="0" style="stop-color:rgb(12.156863%,36.078431%,84.313725%);stop-opacity:1;"/>
<stop offset="1" style="stop-color:rgb(0.784314%,68.235294%,100%);stop-opacity:1;"/>
</linearGradient>
</defs>
<g id="surface1">
<path style=" stroke:none;fill-rule:evenodd;fill:rgb(5.882353%,45.882353%,30.588235%);fill-opacity:1;" d="M 10.484375 2.167969 C 11.003906 2.167969 12.546875 2.027344 13.199219 4.253906 C 13.640625 5.753906 14.339844 8.210938 15.300781 11.625 L 15.695312 11.625 C 16.726562 8.023438 17.433594 5.566406 17.820312 4.253906 C 18.480469 2.003906 20.128906 2.167969 20.789062 2.167969 L 25.882812 2.167969 L 25.882812 18.167969 L 20.691406 18.167969 L 20.691406 8.742188 L 20.34375 8.742188 L 17.449219 18.167969 L 13.546875 18.167969 L 10.652344 8.734375 L 10.304688 8.734375 L 10.304688 18.167969 L 5.113281 18.167969 L 5.113281 2.167969 Z M 33.335938 2.167969 L 33.335938 11.605469 L 33.75 11.605469 L 37.269531 3.847656 C 37.949219 2.300781 39.40625 2.167969 39.40625 2.167969 L 44.429688 2.167969 L 44.429688 18.167969 L 39.132812 18.167969 L 39.132812 8.734375 L 38.71875 8.734375 L 35.265625 16.492188 C 34.582031 18.03125 33.058594 18.167969 33.058594 18.167969 L 28.035156 18.167969 L 28.035156 2.167969 Z M 62.742188 9.773438 C 62.003906 11.886719 59.683594 13.402344 57.113281 13.402344 L 51.558594 13.402344 L 51.558594 18.167969 L 46.519531 18.167969 L 46.519531 9.773438 Z M 62.742188 9.773438 "/>
<path style=" stroke:none;fill-rule:evenodd;fill:url(#linear0);" d="M 57.355469 2.167969 L 46.253906 2.167969 C 46.519531 5.730469 49.554688 8.78125 52.699219 8.78125 L 63.09375 8.78125 C 63.691406 5.820312 61.628906 2.167969 57.355469 2.167969 Z M 57.355469 2.167969 "/>
</g>
</svg>
