<?xml version="1.0" encoding="UTF-8"?>
<svg xmlns="http://www.w3.org/2000/svg" xmlns:xlink="http://www.w3.org/1999/xlink" width="px" height="20px" viewBox="0 0 61 20" version="1.1">
<g id="surface1">
<path style=" stroke:none;fill-rule:nonzero;fill:rgb(0%,34.117647%,62.352941%);fill-opacity:1;" d="M 26.433594 19.691406 L 21.492188 19.691406 L 24.582031 0.351562 L 29.523438 0.351562 Z M 26.433594 19.691406 "/>
<path style=" stroke:none;fill-rule:nonzero;fill:rgb(0%,34.117647%,62.352941%);fill-opacity:1;" d="M 44.347656 0.824219 C 43.375 0.433594 41.828125 0 39.917969 0 C 35.035156 0 31.601562 2.632812 31.578125 6.398438 C 31.539062 9.175781 34.039062 10.71875 35.910156 11.644531 C 37.820312 12.589844 38.472656 13.210938 38.472656 14.054688 C 38.453125 15.347656 36.925781 15.945312 35.503906 15.945312 C 33.53125 15.945312 32.472656 15.636719 30.867188 14.917969 L 30.214844 14.609375 L 29.523438 18.949219 C 30.683594 19.484375 32.820312 19.957031 35.035156 19.980469 C 40.222656 19.980469 43.597656 17.386719 43.636719 13.375 C 43.65625 11.171875 42.335938 9.484375 39.488281 8.105469 C 37.761719 7.222656 36.703125 6.625 36.703125 5.71875 C 36.722656 4.898438 37.597656 4.054688 39.546875 4.054688 C 41.15625 4.011719 42.335938 4.402344 43.230469 4.792969 L 43.675781 5 Z M 44.347656 0.824219 "/>
<path style=" stroke:none;fill-rule:nonzero;fill:rgb(0%,34.117647%,62.352941%);fill-opacity:1;" d="M 50.917969 12.839844 C 51.324219 11.726562 52.890625 7.429688 52.890625 7.429688 C 52.867188 7.46875 53.296875 6.296875 53.539062 5.578125 L 53.882812 7.242188 C 53.882812 7.242188 54.820312 11.871094 55.023438 12.839844 C 54.25 12.839844 51.890625 12.839844 50.917969 12.839844 Z M 57.015625 0.351562 L 53.195312 0.351562 C 52.015625 0.351562 51.121094 0.699219 50.609375 1.957031 L 43.269531 19.691406 L 48.457031 19.691406 C 48.457031 19.691406 49.308594 17.304688 49.492188 16.789062 C 50.0625 16.789062 55.105469 16.789062 55.835938 16.789062 C 55.980469 17.46875 56.425781 19.691406 56.425781 19.691406 L 61.003906 19.691406 Z M 57.015625 0.351562 "/>
<path style=" stroke:none;fill-rule:nonzero;fill:rgb(0%,34.117647%,62.352941%);fill-opacity:1;" d="M 17.367188 0.351562 L 12.527344 13.539062 L 11.996094 10.863281 C 11.101562 7.777344 8.296875 4.425781 5.164062 2.757812 L 9.597656 19.667969 L 14.824219 19.667969 L 22.589844 0.351562 Z M 17.367188 0.351562 "/>
<path style=" stroke:none;fill-rule:nonzero;fill:rgb(98.039216%,65.098039%,10.196078%);fill-opacity:1;" d="M 8.03125 0.351562 L 0.0820312 0.351562 L 0 0.742188 C 6.203125 2.347656 10.308594 6.214844 11.996094 10.863281 L 10.269531 1.976562 C 9.984375 0.742188 9.109375 0.390625 8.03125 0.351562 Z M 8.03125 0.351562 "/>
</g>
</svg>
