<svg id="Слой_1" data-name="Слой 1" xmlns="http://www.w3.org/2000/svg" xmlns:xlink="http://www.w3.org/1999/xlink" viewBox="0 0 3357.96 2230.47"><defs><style>.cls-1{fill:url(#Новый_образец_градиента_1);}.cls-2{fill:url(#Новый_образец_градиента_1-2);}.cls-3{fill:url(#Новый_образец_градиента_1-3);}.cls-4{fill:url(#Новый_образец_градиента_1-4);}.cls-5{fill:url(#Новый_образец_градиента_1-5);}.cls-6{fill:url(#Новый_образец_градиента_1-6);}.cls-7{fill:url(#Новый_образец_градиента_1-7);}.cls-8{fill:url(#Новый_образец_градиента_1-8);}.cls-9{fill:url(#Новый_образец_градиента_1-9);}.cls-10{fill:url(#Новый_образец_градиента_1-10);}.cls-11{fill:url(#Новый_образец_градиента_1-11);}.cls-12{fill:url(#Новый_образец_градиента_1-12);}.cls-13{fill:url(#Новый_образец_градиента_1-13);}.cls-14{fill:url(#Новый_образец_градиента_1-14);}.cls-15{fill:url(#Новый_образец_градиента_1-15);}.cls-16{fill:url(#Новый_образец_градиента_1-16);}</style><linearGradient id="Новый_образец_градиента_1" x1="625.62" y1="1182.73" x2="2732.34" y2="1182.73" gradientUnits="userSpaceOnUse"><stop offset="0" stop-color="#4c9ad4"/><stop offset="1" stop-color="#124899"/></linearGradient><linearGradient id="Новый_образец_градиента_1-2" x1="742.4" y1="1182.73" x2="2615.56" y2="1182.73" xlink:href="#Новый_образец_градиента_1"/><linearGradient id="Новый_образец_градиента_1-3" x1="2031.52" y1="1428.52" x2="2236.1" y2="1428.52" xlink:href="#Новый_образец_градиента_1"/><linearGradient id="Новый_образец_градиента_1-4" x1="1997.32" y1="1544.06" x2="2164.39" y2="1544.06" xlink:href="#Новый_образец_градиента_1"/><linearGradient id="Новый_образец_градиента_1-5" x1="2118.37" y1="1605.62" x2="2285.44" y2="1605.62" xlink:href="#Новый_образец_градиента_1"/><linearGradient id="Новый_образец_градиента_1-6" x1="2103.23" y1="1650.96" x2="2201.9" y2="1650.96" xlink:href="#Новый_образец_градиента_1"/><linearGradient id="Новый_образец_градиента_1-7" x1="2080.85" y1="1692.07" x2="2179.53" y2="1692.07" xlink:href="#Новый_образец_градиента_1"/><linearGradient id="Новый_образец_градиента_1-8" x1="1957.88" y1="1482.5" x2="2162.47" y2="1482.5" xlink:href="#Новый_образец_градиента_1"/><linearGradient id="Новый_образец_градиента_1-9" x1="1969.74" y1="1428.52" x2="2001" y2="1428.52" xlink:href="#Новый_образец_градиента_1"/><linearGradient id="Новый_образец_градиента_1-10" x1="2186.27" y1="1551.99" x2="2217.53" y2="1551.99" xlink:href="#Новый_образец_градиента_1"/><linearGradient id="Новый_образец_градиента_1-11" x1="1598.74" y1="1345.35" x2="1649.18" y2="1345.35" xlink:href="#Новый_образец_градиента_1"/><linearGradient id="Новый_образец_градиента_1-12" x1="944.87" y1="1609.58" x2="946.26" y2="1609.58" xlink:href="#Новый_образец_градиента_1"/><linearGradient id="Новый_образец_градиента_1-13" x1="944.61" y1="1611.81" x2="944.87" y2="1611.81" xlink:href="#Новый_образец_градиента_1"/><linearGradient id="Новый_образец_градиента_1-14" x1="958.06" y1="1573.79" x2="959.53" y2="1573.79" xlink:href="#Новый_образец_градиента_1"/><linearGradient id="Новый_образец_градиента_1-15" x1="805.4" y1="1825.97" x2="1361.57" y2="1825.97" xlink:href="#Новый_образец_градиента_1"/><linearGradient id="Новый_образец_градиента_1-16" x1="959.53" y1="900.62" x2="2232.82" y2="900.62" xlink:href="#Новый_образец_градиента_1"/></defs><path class="cls-1" d="M1201,1637.05c-70.79,0-137.9-3.89-200.17-11.78-215.84-27.35-347.74-99.62-371.4-203.51s63.94-226.15,246.65-344.26c181.43-117.28,435.37-217,715-280.64s551.73-83.81,766.05-56.65c215.84,27.34,347.74,99.61,371.4,203.5S2664.61,1169.86,2481.9,1288c-181.43,117.28-435.37,217-715,280.63C1568.44,1613.79,1373.83,1637.05,1201,1637.05Zm956-899.55c-172.15,0-366,23.18-563.82,68.23-573.84,130.68-1002.19,406.13-954.84,614,22.74,99.88,151.9,169.67,363.67,196.5,213.29,27,484.23,7,762.89-56.5S2296.4,1397.05,2477,1280.33c179.27-115.88,265.47-234.71,242.72-334.6S2567.78,776.06,2356,749.22C2294.1,741.38,2227.33,737.5,2156.94,737.5Z"/><path class="cls-2" d="M1306.13,1623.3c-79.3,0-154.22-5.68-222.74-17.16-193.54-32.43-313.13-107.39-336.74-211.08S798.37,1172,958.78,1059c159.35-112.29,383.93-205.28,632.38-261.86s491.16-70,683.41-37.8c193.54,32.43,313.13,107.4,336.74,211.09s-51.72,223.05-212.13,336.08c-159.35,112.28-383.93,205.28-632.38,261.86C1606.89,1604.77,1449.36,1623.3,1306.13,1623.3Zm746.41-872.47c-139.84,0-296.75,17.58-459.47,54.64-247.39,56.34-470.9,148.86-629.35,260.51C806.33,1176.88,732.21,1293.07,755,1393.15s139.92,172.73,329.81,204.54c191.17,32,432.7,18.65,680.08-37.7,509.49-116,885.44-379.65,838.07-587.68C2570.72,830.73,2350.5,750.83,2052.54,750.83Z"/><rect class="cls-3" x="2031.52" y="1413.43" width="204.58" height="30.18" rx="1.08"/><rect class="cls-4" x="1997.32" y="1528.97" width="167.07" height="30.18" rx="1.08"/><rect class="cls-5" x="2118.37" y="1590.53" width="167.07" height="30.18" rx="1.08"/><rect class="cls-6" x="2103.23" y="1638.06" width="98.67" height="25.79" rx="0.92"/><rect class="cls-7" x="2080.85" y="1679.18" width="98.67" height="25.79" rx="0.92"/><rect class="cls-8" x="1957.88" y="1467.41" width="204.58" height="30.18" rx="1.08"/><circle class="cls-9" cx="1985.37" cy="1428.52" r="15.63"/><circle class="cls-10" cx="2201.9" cy="1551.99" r="15.63"/><circle class="cls-11" cx="1623.96" cy="1345.35" r="25.22"/><path class="cls-12" d="M946.26,1607.69l-1.39,3.77c.46-1.25.93-2.5,1.39-3.77Z"/><path class="cls-13" d="M944.61,1612.16h0l.26-.7C944.78,1611.7,944.7,1611.93,944.61,1612.16Z"/><path class="cls-14" d="M958.06,1575.77h0l1.47-4h0Z"/><path class="cls-15" d="M1348.68,1715.51H1238.11a2.56,2.56,0,0,1-2.43-3.38l10-29.57a2.56,2.56,0,0,0-2.43-3.38h-38.36a12.9,12.9,0,0,1-12.89-12.9v-4.39a12.89,12.89,0,0,1,12.89-12.89H1254a4.1,4.1,0,0,0,3.88-2.79l4.37-13a4.1,4.1,0,0,0-3.88-5.41h-104.2a12.6,12.6,0,0,1-3.27-.47,100.28,100.28,0,0,0,16.84,4.75c-38.46-1.07-164.75-7.75-223.15-20l-136.47,369.1a43.45,43.45,0,0,0,40.76,58.52h265.94a14.51,14.51,0,0,0,13.75-9.86l5.23-15.52a7.28,7.28,0,0,0-2.11-8.08,15.49,15.49,0,0,1-6-12.28c0-4.43,1.87-9.38,5.81-11.41,3.58-1.85,12.93-3.34,17.2-12.31l6.29-18.67a9.11,9.11,0,0,0-8.64-12H1019.59a12.9,12.9,0,0,1-12.89-12.9v-4.39a12.89,12.89,0,0,1,12.89-12.89h147.08a3.52,3.52,0,0,0,3.33-2.39l2.15-6.38a3.52,3.52,0,0,1,3.33-2.4h70.91a12.89,12.89,0,0,0,12.89-12.89V1881a12.89,12.89,0,0,0-12.89-12.89H1188a3.52,3.52,0,0,1-3.33-4.64l3.36-10a3.52,3.52,0,0,0-3.33-4.64h-47.2a12.89,12.89,0,0,1-12.89-12.89v-4.39a12.9,12.9,0,0,1,12.89-12.9h59.41a4,4,0,0,0,3.76-2.7l10-29.82A4,4,0,0,0,1207,1781H1051.9a12.91,12.91,0,0,1-12.9-12.9v-4.39a12.9,12.9,0,0,1,12.89-12.89s166.91,0,168.6,0c1.24,0,2.56-1.32,3.4-3.8.28-.83,1.6-1.28,2.44-1.28h122.35a12.89,12.89,0,0,0,12.89-12.89v-4.39A12.9,12.9,0,0,0,1348.68,1715.51Zm-208.9-16.82a15.65,15.65,0,1,1-19-19A15.54,15.54,0,0,1,1139.78,1698.69Z"/><path class="cls-16" d="M2232.35,1378.52l-43.8-119.75a9.15,9.15,0,0,0-8.59-6H2010.21a12.89,12.89,0,0,1-12.89-12.89v-4.4a12.89,12.89,0,0,1,12.89-12.89h152a9.14,9.14,0,0,0,8.58-12.28l-5.77-15.79a9.15,9.15,0,0,0-8.59-6h-83.39a12.91,12.91,0,0,1-12.9-12.9v-4.39a12.9,12.9,0,0,1,12.9-12.89h65.67a9.14,9.14,0,0,0,8.58-12.29l-339-926.84a43.47,43.47,0,0,0-40.81-28.53h-267a43.46,43.46,0,0,0-40.76,28.39L959.53,1571.81s104.35,32.78,181.77,38.74a12.89,12.89,0,0,1,12.89-12.89h114.55a7.68,7.68,0,0,0,7.28-5.23l77.26-229.27a8.47,8.47,0,0,1,8-5.76h107.23a12.89,12.89,0,0,0,12.89-12.9v-4.39a12.89,12.89,0,0,0-12.89-12.89h-91.36a8.47,8.47,0,0,1-8-11.17l210.68-625.21,12.8-43.5c12.31-41.86,71.72-41.5,83.53.51l12.08,43,198.81,609.81a5.77,5.77,0,0,0,5.48,4h139.11a12.9,12.9,0,0,1,12.9,12.89v4.4a12.9,12.9,0,0,1-12.9,12.89H1906.13a5.76,5.76,0,0,0-5.47,7.55,5.76,5.76,0,0,1-5.48,7.54h-129a12.89,12.89,0,0,0-12.89,12.89v4.39a12.9,12.9,0,0,0,12.89,12.9h142.59a5.75,5.75,0,0,1,5.47,4l.25.77a5.77,5.77,0,0,0,5.48,4h305.2A7.64,7.64,0,0,0,2232.35,1378.52Zm-250.19-259.39a15.65,15.65,0,1,1,11.27,11.27A15.67,15.67,0,0,1,1982.16,1119.13Z"/></svg>